<svg xmlns="http://www.w3.org/2000/svg" xmlns:xlink="http://www.w3.org/1999/xlink" width="959" height="1195" viewBox="0 0 959 1195">
  <defs>
    <clipPath id="clip-path">
      <rect id="Rettangolo_28" data-name="Rettangolo 28" width="959" height="1195" transform="translate(0.5 0.5)" fill="none"/>
    </clipPath>
  </defs>
  <g id="sdc-mappa-adriatico" transform="translate(-0.5 -0.5)" clip-path="url(#clip-path)">
    <path id="Tracciato_9" data-name="Tracciato 9" d="M512.87,165.69s-3.21-8.49-4.91-5.28-7.36-1.32-5.1,5.28-1.32,6.6,1.7,10.19,2.34,4.72-2.23,6.79-8.53,5.85-6.27,12.64,9.44,4.91,15.66,4.34,8.68-2.64,10.57-.57-.38,2.26-1.13,6.04,2.08,8.49,7.17,7.17,3.77,1.51,7.74,3.77,5.66-.75,4.34-3.96-.38-2.45,4.91-1.51,6.98-3.96,1.89-8.3-12.08-4.91-11.51-8.49-5.85-2.83-8.3-6.6-2.64-5.47-.57-7.36.14-6.23-3.99-5.28-6.77.38-7.52-1.89-2.45-6.98-2.45-6.98Z" fill="none" stroke="#002d7e" stroke-width="1"/>
    <path id="Tracciato_10" data-name="Tracciato 10" d="M474.94,172.29s-8.11,8.56-4.72,15.98,5.1,6.86,8.11,8.37,3.77,2.64,3.4,5.28,1.51,7.93,4.72,9.44,7.17,7.93,5.85,10.76-3.21,4.91-6.04,2.08-7.74-7.17-7.93.38,1.88,8.3,2.64,12.64,1.51,8.49,4.91,7.55,3.77,1.51,2.64,7.55,3.16,5.85,4.04,10.95,2.38,8.49,6.53,11.32,5.28,8.11,8.87,10.19,5.85,2.64,7.74-3.02-2.45-3.59-5.1-7.93-8.49-10.38-6.04-15.85-4.72-5.85-1.7-10.76-1.13-8.3-2.45-12.83,4.53-11.89.94-19.81-9.62-2.08-13.21-9.25-4.34-13.59-5.85-17.93,2.64-4.34-.19-10.95-5.39-6.36-7.17-4.15Z" fill="none" stroke="#002d7e" stroke-width="1"/>
    <path id="Tracciato_11" data-name="Tracciato 11" d="M491.36,270.04s-6.6-3.21-4.53,1.89,2.45,7.93,4.53,10.57,6.98,2.83,5.66,0-4.71-5.1-4.24-7.36-1.42-5.1-1.42-5.1Z" fill="none" stroke="#002d7e" stroke-width="1"/>
    <path id="Tracciato_12" data-name="Tracciato 12" d="M497.24,287.78s-3.05-2.45-3.62,1.7-.31,8.87,3.62,6.6,6.57.75,7.89,1.7,1.51,2.83,2.45,5.66,5.47,5.1,7.55,7.74,8.49,3.02,5.1-2.64-7.55-8.11-10-9.81-6.6-6.04-7.93-7.17-5.06-3.77-5.06-3.77Z" fill="none" stroke="#002d7e" stroke-width="1"/>
    <path id="Tracciato_13" data-name="Tracciato 13" d="M542.5,226.45a6.04,6.04,0,0,1-3.59,6.79c-4.72,2.26-5.47,3.21-2.83,4.34s1.89,2.64-.57,4.91-4.72,2.83-.94,6.23,6.84,2.08,8.04,0,3.84-3.96,5.16.19,8.87,2.83,7.36.38-5.1-5.66-6.98-7.55-5.1-3.4-3.21-5.66-1.13-3.4.38-5.66-1.7-5.47-2.83-3.96Z" fill="none" stroke="#002d7e" stroke-width="1"/>
    <path id="Tracciato_14" data-name="Tracciato 14" d="M559.11,251.58s-5.64-1.17-3.76,2.98,6.97,5.66,7.35,3.21-3.59-6.19-3.59-6.19Z" fill="none" stroke="#002d7e" stroke-width="1"/>
    <path id="Tracciato_15" data-name="Tracciato 15" d="M548.35,263.44s-3.96-2.26-2.64,3.59,7.19,10.95,9.63,13.78,8.67,4.72,5.84,0-6.15-8.87-7.51-10.95a78.741,78.741,0,0,0-5.32-6.42Z" fill="none" stroke="#002d7e" stroke-width="1"/>
    <path id="Tracciato_16" data-name="Tracciato 16" d="M571.18,278.53s-6.6,0-4.34,3.02,3.21,5.28-.47,6.42-1.41,5.47,1.61,7.36,6.98,2.83,5.28,5.47-1.32,8.11,4.53,7.55,5.28,1.13,8.87,3.4,4.53,9.44,7.93,8.11,8.11-1.89,8.11,2.83,2.08,7.36,3.4,10,3.96,8.68,6.04,5.66-3.21-6.23,1.7-4.91,7.74-1.7,5.47-3.77-7.74-5.47-4.34-4.34,3.59-1.32-.57-4.34-9.81-5.47-11.89-9.44-8.11-6.98-6.98-3.59-1.32,1.7-6.42-1.51-10.57-9.06-12.27-10.76.94-2.83,4.53.19,2.45-1.7-1.13-4.91-1.32-5.47-3.59-8.11a21.556,21.556,0,0,0-5.47-4.34Z" fill="none" stroke="#002d7e" stroke-width="1"/>
    <path id="Tracciato_17" data-name="Tracciato 17" d="M588.54,295.52s-7.17.57-3.4,3.4,11.51,4.15,8.68,0-5.28-3.4-5.28-3.4Z" fill="none" stroke="#002d7e" stroke-width="1"/>
    <path id="Tracciato_18" data-name="Tracciato 18" d="M557.66,318.35s-4.39.63-2.7,2.64,3.08,4.28,4.46,2.01.88-4.78-1.76-4.65Z" fill="none" stroke="#002d7e" stroke-width="1"/>
    <path id="Tracciato_19" data-name="Tracciato 19" d="M556.28,325.9s-4.77,1.89-1.32,4.91,9.92,4.15,7.76,0A9.8,9.8,0,0,0,556.28,325.9Z" fill="none" stroke="#002d7e" stroke-width="1"/>
    <path id="Tracciato_20" data-name="Tracciato 20" d="M596.16,336.59s-5.54.76-2.64,3.9,5.28,3.27,7.42,2.14,4.65-2.63.75-3.45-2.94-3.47-5.54-2.59Z" fill="none" stroke="#002d7e" stroke-width="1"/>
    <path id="Tracciato_21" data-name="Tracciato 21" d="M565.21,351.44s-4.4,1.38-2.89,4.28,6.04,4.28,8.81,5.16,6.04,2.52,6.29-1.01-4.03-2.64-6.16-3.65-4.5-5.51-6.04-4.78Z" fill="none" stroke="#002d7e" stroke-width="1"/>
    <path id="Tracciato_22" data-name="Tracciato 22" d="M555.14,345.4c-.17.54-1.89,6.92,1.51,5.16s4.77-4.4,3.52-5.16S555.72,343.63,555.14,345.4Z" fill="none" stroke="#002d7e" stroke-width="1"/>
    <path id="Tracciato_23" data-name="Tracciato 23" d="M578.17,372.2s-3.4-2.26-4.15,0-1.56,4.03-4.3.5-5.64-.63-3.5,2.52,7.8-.5,10.06,3.9,11.45,8.43,13.46,10.06a85.884,85.884,0,0,1,8.46,8.55c1.22,1.63,6.81,4.91,5.53,1.01s-6.44-12.73-9.59-12.91-6.04-.8-8.05-3.19-6.16-10.82-7.93-10.44Z" fill="none" stroke="#002d7e" stroke-width="1"/>
    <path id="Tracciato_24" data-name="Tracciato 24" d="M593.51,368.8s-5.91.88-3.52,3.65,6.86,4.53,8.21,2.14S596.72,367.71,593.51,368.8Z" fill="none" stroke="#002d7e" stroke-width="1"/>
    <path id="Tracciato_25" data-name="Tracciato 25" d="M612.01,405.16s-6.92-2.52-5.79,1.64,3.9,9.18,6.79,8.05,3.77-.25,5.41,1.38,4.03,2.26,1.76-1.01-6.93-9.69-8.18-10.06Z" fill="none" stroke="#002d7e" stroke-width="1"/>
    <path id="Tracciato_26" data-name="Tracciato 26" d="M639.31,428.18s-4.53-.25-2.64,2.39,5.28,6.54,9.69,8.43,7.17.38,2.14-4.53-7.59-6.39-9.18-6.29Z" fill="none" stroke="#002d7e" stroke-width="1"/>
    <path id="Tracciato_27" data-name="Tracciato 27" d="M643.7,399.24s-4.89.5-3.76,2.52,2.77,5.66,4.53,5.91,3.4.75,3.02,2.77,1.64,3.9,4.91,3.27,4.4-1.01,5.66.12,0-2.64-2.64-4.27-10.07-10.62-11.71-10.32Z" fill="none" stroke="#002d7e" stroke-width="1"/>
    <path id="Tracciato_28" data-name="Tracciato 28" d="M623.83,386.41s-5.54-2.39-6.54-5.28-4.03-1.13-6.42-3.77-6.42-5.18-4.78-1.64,6.84,5.42,7.51,6.68,4.32,6.04,5.32,7.42,5.79,4.65,9.18,4.4,3.9-2.52.88-4.4-5.16-3.4-5.16-3.4Z" fill="none" stroke="#002d7e" stroke-width="1"/>
    <path id="Tracciato_29" data-name="Tracciato 29" d="M690.26,433.98s-7.04-2.15-3.9,2.63,6.67,1.89,6.67,1.26-1.78-3.64-2.77-3.89Z" fill="none" stroke="#002d7e" stroke-width="1"/>
    <path id="Tracciato_30" data-name="Tracciato 30" d="M794.05,479.76s-7.05-2.26-7.55,1.76-.63,5.03,3.14,4.15,9.44.34,10.44.3,6.16-.76,3.77-3.42-8.18-3.29-9.81-2.79Z" fill="none" stroke="#002d7e" stroke-width="1"/>
    <path id="Tracciato_31" data-name="Tracciato 31" d="M791.03,500.52a21.877,21.877,0,0,0-5.91,0c-2.01.5-4.4,2.52-2.01,5.66s5.66,2.89,10.32,2.64,4.91,4.4,8.93,5.66,13.96,2.64,9.18-2.01-5.66-7.05-10.32-9.18A27.876,27.876,0,0,0,791.03,500.52Z" fill="none" stroke="#002d7e" stroke-width="1"/>
    <path id="Tracciato_32" data-name="Tracciato 32" d="M830.28,502.4a35.134,35.134,0,0,1-8.55,0c-3.52-.63-5.66,1.51-2.14,3.77s4.4,3.65,1.64,4.91.25,3.4-1.38,5.91-2.89,3.77,3.27,4.91a68.861,68.861,0,0,1,13.34,3.65c3.65,1.39,17.24,1.89,23.02,0s16.86-3.27,21.51-7.55,5.54-7.3,2.01-9.31-10.82,1.51-9.31-2.26-7.55-2.89-10.44-1.13-4.78-2.64-9.44-1.89-10.44-2.39-13.84-2.14-9.69,1.13-9.69,1.13Z" fill="none" stroke="#002d7e" stroke-width="1"/>
    <path id="Tracciato_33" data-name="Tracciato 33" d="M829.27,537.5s-5.79,4.28-7.8,5.28-3.4,2.01-.5,4.53,3.9,5.54,6.92,3.9,4.03-1.34,7.42.46,18.12,2.48,26.67,0,17.49-.59,19.88-.09,19,.75,21.76-1.13,6.04-1.64,10.69-.63,5.91-.63,10.06-2.01,7.3-2.64,4.53-4.4-4.28-.88-9.06.88-9.56-2.01-13.84-.25-13.93-.38-20.87.13-16.5-.25-20.4,0-7.17.25-6.67-2.01-3.9-3.77-5.03-5.28-6.42-1.13-9.18.88-.63,7.17-3.9,4.4-9.84-5.28-10.69-4.65Z" fill="none" stroke="#002d7e" stroke-width="1"/>
    <path id="Tracciato_34" data-name="Tracciato 34" d="M839.34,533.48c-.37.15-5.28,1.64-3.02,3.77s5.28.42,6.04-1.3-1.29-3.17-3.02-2.47Z" fill="none" stroke="#002d7e" stroke-width="1"/>
    <path id="Tracciato_35" data-name="Tracciato 35" d="M812.81,546.81s-6.81,1.76-3.91,4.65,9.69,3.27,9.56,1.83-2.45-7.82-5.65-6.48Z" fill="none" stroke="#002d7e" stroke-width="1"/>
    <path id="Tracciato_36" data-name="Tracciato 36" d="M778.32,572.85s-6.92.5-9.56,4.78,1.13,3.77,2.64,3.77,1.13,2.64-.13,4.15,5.16,4.4,10.19,0,7.42-3.02,10.44-3.4,5.16-2.77,6.67-5.28-2.39-6.92-5.41-4.03-6.04,2.52-4.53.38-3.6-2.64-5.26-.13-5.06-.25-5.06-.25Z" fill="none" stroke="#002d7e" stroke-width="1"/>
    <path id="Tracciato_37" data-name="Tracciato 37" d="M874.64,580.28s-13.53-3.15-17.31,0,1.38,2.52,4.78,2.14,9.81,2.14,5.91,4.4-9.44,1.89-10.19,5.91,2.39,4.78,5.79,2.77,9.56.77,12.71,1.07,15.85.43,20.63-1.2,9.81-4.28,11.57-6.29,14.47-2.4,17.61-1.26,6.79-2.13,9.18-1.88,6.29,2.14,5.16-.13-5.54-2.64-7.3-5.79-6.92.38-10.95-1.89-9.81,1.38-15.47,0-8.3,2.01-10.82,3.52-5.66,3.15-7.8,2.01-4.65-2.39-7.17-1.13-4.36-1.86-6.34-2.26Z" fill="none" stroke="#002d7e" stroke-width="1"/>
    <path id="Tracciato_38" data-name="Tracciato 38" d="M916.71,563.54s-5.66-1.89-3.77,2.26,1.38,8.68,7.93,7.3,7.55,2.27,13.84.25,10.95.75,14.09,3.02,8.93,5.16,10.82,4.4,7.3,6.42,11.83,4.03,7.17-.5,7.93,3.52,5.79,2.77,8.81,3.65,11.07.13,16.61,2.64,12.71,4.65,15.85,2.77,2.89-3.02,0-7.05-8.18-2.52-12.96-4.65-17.36-11.07-17.61-7.67-6.42,2.77-10.06,0-7.05-5.91-12.27-8.3-7.61-4.65-11.51-5.91-4.66-2.49-10.19-.68-10.44,1.18-15.1.93-14.22-.5-14.22-.5Z" fill="none" stroke="#002d7e" stroke-width="1"/>
    <path id="Tracciato_39" data-name="Tracciato 39" d="M894.94,620.28c-.28.25-1.13,1.13-4.78,4.15s-2.89,7.3.75,5.91,6.92,1.51,8.55-.38,8.43-5.91,6.42-8.93-3.9-2.01-5.28-.75-3.18-2.17-5.66,0Z" fill="none" stroke="#002d7e" stroke-width="1"/>
    <path id="Tracciato_40" data-name="Tracciato 40" d="M391.91,95.61s2.45,4.79-7.93,6.3-14.53,2.26-16.61,1.13-8.3-.19-5.66,4.53,3.02,9.25-1.7,6.23-10.95-2.45-9.44,2.45,4.91,9.06,4.34,16.61,4.91,4.53,4.91,12.64,1.89,7.93,5.1,7.93,2.26,1.7,2.08,7.17,1.51,6.23.75,11.13,1.51,10.38,3.96,12.64,1.89,6.23,6.42,4.91,3.59,1.89.57,2.64-3.59,5.47-1.32,8.49,7.93,4.15,9.81,8.3,4.91,5.66,7.55,10.76,8.87,5.47,10.19,11.7,6.6,14.91,10.76,17.74,9.62,16.61,10,10.38-2.83-11.89,0-10.57,3.77,6.23,6.98-2.64-3.96-7.55,1.89-14.34,7.36-8.11,5.47-13.4-3.21-13.02-.75-9.25.57,8.3,6.6,10.57,11.89.94,9.62-7.55-6.6-11.89-1.32-16.98,1.13-6.79,3.77-8.68,3.4-4.53,3.21-13.02-.19-14.34,5.1-20.38,1.32-10.57,6.42-13.96,5.85.94,11.7,1.89,10.57,4.72,13.4,6.42,9.62-1.51,10.76,3.4.38,5.66,7.74,8.3,7.17,8.3,14.72,13.02,11.89,5.66,17.17,8.68,4.53,5.1,7.74,10.38,2.83,7.93,5.28,11.7,5.66,9.44,3.4,14.91-1.13,12.45-1.13,16.98a137.841,137.841,0,0,0,1.9,18.3c.93,5.47,3.38,7.36,6.59,14.72s4.72,9.62,8.11,13.02,9.62,6.23,16.23,13.21,22.83,22.46,28.12,27.17,6.98,5.1,13.02,6.98,10,4.34,14.91,6.98,7.36,4.91,10.76,4.72,7.74.94,7.93,5.47,1.32,5.85,5.47,6.6,3.96,4.34,4.34,9.06-.75,4.53-1.7-.19-4.15-5.28-8.87-3.4-11.7-3.96-8.11-5.28,4.72-3.02.75-6.6-9.25-1.89-13.59-1.32-10.76-4.72-13.21-8.68-10.95-3.02-7.17.19,7.55,5.85,6.04,7.55,2.08,11.89-4.15,5.47-10.76-10.57-12.45-6.6,2.83,6.42.94,7.74-4.34-1.13-7.74-3.77-7.36-3.77-7.36-.38,3.02,2.45,6.79,5.47,4.53,4.72,2.45,7.74,0,4.72,2.08,7.17,4.72,5.66,9.81,7.93,7.74,6.6,7.74,8.3.57,2.26,6.6,7.17,7.36,5.47,13.78,10.57,3.21,8.68,13.96,12.27,7.93,4.72,9.62,7.36,3.77,4.15,10.19,5.1,8.11,5.47,10,9.81,3.59,5.47,8.49,4.15,10.57-.75,12.45,1.13,8.68.94,4.91-3.21-3.02-3.02-1.32-7.74.75-8.11,4.34-5.28,6.98,4.72,7.93,3.96,3.4,1.89-1.7,3.02-10,1.13-6.04,5.66,5.85,8.49,2.26,8.11-5.66,1.51-1.89,2.64.77,5.1,8.78,3.59,4.99-.19,4.24,4.72,6.23,7.74-.57,8.87-2.26,3.02-.38,8.3,4.91,6.98,6.04,7.55a1.933,1.933,0,0,1,0,3.59c-2.08,1.14,2.83,4.15,5.47,5.1s6.42-2.26,11.13.38,8.87-.38,10.57-1.89,2.45-4.91,0-5.1-2.52-4.53,1.57-4.15,5.98,3.77,12.21.75,7.93-1.89,9.62-3.77,7.36-7.74,12.64-5.28,7.17.19,12.27,3.21-2.83,2.64-5.66,2.83-3.77,4.15,1.89,4.15,8.3-3.77,13.78-1.13,9.81,7.55,14.72,6.6a12.181,12.181,0,0,1,12.45,4.91c2.83,3.97,6.42,2.64,11.51,2.08s13.96-.94,17.55,3.59,15.66,10.95,19.44,13.96,6.6.94,8.87,7.55,8.11,10.38,16.79,14.34,11.89,4.91,21.14,10.19,12.08,9.25,19.06,14.15,12.83,14.34,20.19,17.17,11.7,5.85,16.42,7.93,13.02,2.08,15.1,7.36,6.98,11.13,12.08,8.87,7.74-.75,10.19,1.32,3.59-.38,6.79,5.85a25.167,25.167,0,0,0,10.19,10.95c3.21,1.89,7.55.75,11.32-.94s8.3,2.64,13.02,6.04a38.561,38.561,0,0,0,12.45,6.23c4.72,1.51,6.04,2.64,3.21,4.91s-.38,5.85,2.83,7.93,16.23,9.25,22.08,14.15,9.62,7.36,15.1,6.6,7.17,6.6,10.57,5.85,3.4-2.08,2.26-4.72,3.77-2.64,6.98-2.45,8.68,2.26,11.32-4.91.94-8.49,0-12.27.57-7.55,2.45-3.59,4.53,3.77,6.42,4.72,6.6,2.45,1.89,3.4-5.66-3.02-4.72.94,9.81,10.76.94,13.02-9.81,4.15-14.91,3.02-7.93-.46-2.26,2.89,9.06,3.91,10.76,1.64,7.17-3.77,8.3.38.57,5.28,7.93,11.51,9.06,3.96,13.21.94,7.74-.57,7.55,4.72,9.44,12.45,15.1,15.85,13.4,6.6,14.34,6.6,6.09.75,6.09.75" fill="none" stroke="#002d7e" stroke-width="1"/>
    <g id="Raggruppa_28" data-name="Raggruppa 28">
      <path id="Tracciato_41" data-name="Tracciato 41" d="M541.04,1117.17c3.28-2.91,6.19-2.18,6.19-4s-2.55-1.82-2.55-1.82-10.92,1.82-9.1,5.83,2.18,2.91,5.46,0Z" fill="none" stroke="#002d7e" stroke-width="1"/>
      <path id="Tracciato_42" data-name="Tracciato 42" d="M488.61,1090.59a19.278,19.278,0,0,0,8.01-4.37c2.91-2.55,1.82-7.28,0-8.37s-4.7.73-6.17,0-6.21,5.82-7.66,8.37S485.34,1091.68,488.61,1090.59Z" fill="none" stroke="#002d7e" stroke-width="1"/>
      <path id="Tracciato_43" data-name="Tracciato 43" d="M507.91,1079.3c2.55-2.18,5.83.75,2.91-4.18s-9.1-4.56-7.28-.56,1.82,6.92,4.37,4.73Z" fill="none" stroke="#002d7e" stroke-width="1"/>
      <path id="Tracciato_44" data-name="Tracciato 44" d="M392.319,95.734c-7.87-.62-15.889-8.384-9.239-8.384s-.88-7.64.74-9.68,7.4-3.27-.74-10.67-9.37-6.78-14.92-12.33-6.78-7.4-8.63-7.4-6.59,3.85-7.59,10.46,6.28,8.27-.33,12.9-9.92,7.28-14.22,2.98-5.29-8.6-9.92-4.3-14.56.33-17.53-2.31-6.07-.33-9.32,3.97-5.57,4.96-3.91,8.6-.85,11.7-.85,11.7l-5.64,1.76s-3.61-.46-8.33-1.23l-.4.61s-3.31,6.76-7.02,5.41-5.75,1.69-7.78,4.06-11.03,8.79-14.64,12.17-7.67,8.11-11.05,11.83-12.84,9.8-17.92,10.82-16.56,5.75-19.6,8.11-7.1,5.75-11.16,6.09-9.06-3.72-11.46-2.03-3.42,8.79-3.42,14.54-3.04,12.51,0,16.9a131.989,131.989,0,0,0,10.82,14.2c4.06,4.39,5.07,13.86,5.07,16.9s9.13,8.45,14.54,10.82,10.14,9.13,11.15,11.83,1.69,15.55.68,17.92-10.48,16.56-12.51,18.25c-1.56,1.3-1.17,5.16-3.78,3.38-.75,1.18-1.41,2.03-1.8,2.13-1.24.31-3.83-.3-4.45-1.65s-9.96-10.26-9.63-3.31-3.64,23.16-2.98,31.43,3.64,19.19,6.95,25.8,5.29,18.2,6.95,23.82,2.65,15.22,5.62,20.84,7.28,13.23,11.58,18.19c0,0,10.77,14.3,16.86,19.57s16.07,15.24,18.84,17.45,10.8,5.08,12.74,8.64l.26.51c7.9,1.67,25.64,5.69,28.71,8.76,3.97,3.97,15.22,7.94,19.19,14.89s15.21,10.92,21.5,15.55,19.52,11.25,25.47,15.88,13.89,9.26,16.54,9.59,10.59,1.65,9.26-4.3,4.96-1.65,7.94,2.65,8.6,9.59,10.92,11.58,1.65.33,1.98,5.29,4.3,19.19,8.27,24.15,6.62,11.58,7.94,14.89a65.188,65.188,0,0,0,9.26,14.56c3.97,4.63,3.97,9.26,4.96,12.24s5.29,8.93,6.62,11.25,0,3.64,2.31,8.93c0,0,3.13,8.92,4.61,13.74s1.11,8.89,3.71,12.6c2.22,3.17,6.58,8.23,4.33,11.25a38.914,38.914,0,0,1,4.83,10.94c3.7,12.58,0,10.36,1.85,11.47.91.55,4.22,10.76,8.14,17.76a54.286,54.286,0,0,0,10.59,13.22c3.64,3.64,13.89,11.91,13.56,14.56s-4.61,3.64.01,6.28,15.87,11.25,19.51,15.22,14.23,11.25,16.87,12.24a13.648,13.648,0,0,1,7.28,5.62c2.65,3.64,1.99,4.96,6.29,7.61s8.93,2.97,10.25,6.28,11.25,13.23,16.87,14.89,10.26,1.33,12.57,1.65,6.95-.33,5.62,6.28c-1.29,6.44.57,9.12,3.72,11.7.08.07.16.14.25.21-.09-.07-.17-.14-.25-.21,5.66,3.23,11.08,7.9,12.74,7.86,3.33-.08,5.56,1.31,6.39,1.31s18.17.97,22.14,4.61a59.6,59.6,0,0,0,16.62,10.54c.3.12.61.26.91.38-.31-.12-.61-.26-.91-.38,3.34-.03,6.68.21,8.91,1.06,6.17,2.34,2.01,1.21,7.38,1.47a82.456,82.456,0,0,1,9.79,1.13c.86.09,23.46-.96,29.09-2.28s20.51-5.95,23.16-5.29,14.56,1.32,17.86,0,14.56-4.96,16.21-4.96,8.93-2.32,13.57-3.97,11.91-6.62,18.85-.99,11.91,6.62,15.22,11.91,4.3,8.27,4.3,13.56a22.24,22.24,0,0,1-5.29,14.22c-3.31,3.97-13.57,8.6-16.87,11.58s-10.58,6.95-13.56,13.23-5.96,6.62-1.32,13.89,3.64,14.56,7.61,17.53,12.57,6.95,17.2,8.27c0,0,11.23,4.84,16.78,7.09s12.93,5.34,25.65,9.44,67.71,21.13,77.98,23.6,71.51,21.99,76.33,25.69,14.08,10.37,21.49,17.04,20.74,13.71,28.15,15.19,31.49,6.3,37.05,10,20.37,6.3,24.45,6.67,16.3,5.56,19.63,12.59,2.59,10.37,8.89,14.81,28.9,14.08,32.23,17.78,24.45,20.75,27.41,24.08,8.52,15.93,10,19.26,6.67,8.89,7.78,9.63,2.59,2.22,0,6.3-4.81,6.67-5.93,10.74-5.56,14.08-4.82,18.89-1.48,14.82-.37,19.63,2.59,17.41-3.33,15.19a101.162,101.162,0,0,0-13.7-3.71c-2.97-.74-14.45.37-18.89-1.48s-19.64-12.59-24.08-19.63-7.78-11.11-7.04-17.41-.74-12.97-3.33-15.93-13.71-10-14.82-14.82-4.82-12.85-10-12.72-21.85-4.58-36.3,0-24.08,3.94-28.89,0-32.97-10.24-36.67-14.32,1.11-12.6-8.52-15.19-20.74-6.3-25.19-3.7-12.22,12.59-16.67,17.41c0,0,.65,3.52-4.07,5.19-.68.24-1.32.47-1.94.69-.45,4.65-.98,8.81-1.97,9.93a26.473,26.473,0,0,0-4.39,7.39c-.23,1.15-11.71,23.11-13.93,27.93a32.1,32.1,0,0,1-4.08,8.56c-3.23,5.08-.92,8.32-10.63,10.86-.66.17-1.29.31-1.9.44,3.44,8.44,6.6,16.49,6.6,17.55,0,1.67,6.67,16.3,2.59,22.97s-14.44,23.34-14.44,31.86,1.85,7.04,5.19,8.52.74,5.19,2.22,9.63,1.48,8.15,12.22,10.37,20.38,1.85,24.82-1.48,5.56-3.5,10,2.88,11.11,10.83,16.67,12.31,16.67,5.19,20.37,5.19,5.19,4.44,5.93,7.78,3.34,7.04,9.26,8.89,10-.74,6.3,3.33-6.67,6.67-5.19,13.34,0,15.18,3.33,18.15,5.19,5.56,2.59,10.37-.37,13.33,2.96,16.3,4.45,7.04,4.08,8.15,2.59,0,7.04,2.22,2.59,3.33-.74,5.19-2.59,4.45-2.59,7.41.74,6.29-2.22,9.26-5.55,3.71-5.93,7.41-4.08,3.7-4.08,0-2.22-4.08-5.56-.74-8.89,6.3-11.48,3.52-14.08-4.26-15.93-2.04-13.7,6.67-18.52,12.22-17.41,12.6-20,15.56-4.07,7.04-6.67,11.85-4.82,9.63-1.85,14.45,5.93,14.81,8.15,22.23,4.44,14.81,4.07,18.89.37,15.19-6.3,20.37-13.34,12.23-18.89,14.08-8.52,4.07-11.85,9.26-8.52,9.26-11.48,15.56-12.97,12.59-12.23,16.67-.37,9.26-.37,14.82-.74,17.78-5.56,22.6-7.78,9.63-15.93,10.37-24.82,2.6-30.38,2.96-18.89-4.81-23.71-8.89-8.15-4.81-7.41-11.11-1.11-18.52-1.11-23.71-2.96-6.3-2.96-10.74,1.48-10,4.81-10.37,10-3.33,13.34-6.67,10.01-11.48,10.75-17.78,7.78-20.37,9.26-27.41,5.19-13.7-1.85-17.78-15.19-12.97-14.08-15.19a36.229,36.229,0,0,1,6.67-8.89c3.34-3.33,8.89-4.82,11.11-6.67s4.07-2.59,8.52-2.96,17.78.37,20.75-2.59,11.85-8.15,10.74-14.45,2.22-13.71-.74-18.15,1.11-7.78-7.78-10.74-10.01-12.59-12.97-17.41-9.63-10.74-9.26-20-6.67-31.12-5.93-33.71-5.93-14.45-9.26-18.52-11.48-17.79-14.08-21.49-11.48-8.89-13.34-13.34-3.71-10.37-5.93-15.56-5.92-9.26-5.92-12.22-1.48-10.01-4.08-13.71-1.85-10.74-1.48-13.7-7.04-10.38-11.85-16.3c0,0-1.42-2.22-3.35-5.68-2.53-1.94-5.92-4.96-5.92-4.96a57.956,57.956,0,0,1-4.67-5.86,14.275,14.275,0,0,1-5.7-6.47c-2.82-6.06-3.76-.52-13.78,3.59s-6.95,4.92-6.95,4.92c-4.07,7.41.74,4.08-4.07,7.41s-12.23,4.44-15.93,1.48-4.44-6.67-7.04-3.7-5.93,0-4.45-2.59-2.22-3.34-5.56-7.04-13.34-14.08-20-14.45-4.45,2.22-10,.74-6.67-4.82-10.75-7.41-7.04-1.48-12.59-2.59-5.93-3.34-2.97-7.41,2.59-2.96,3.71-11.48-3.71-6.3,1.11-8.52,8.15-8.89,4.45-14.08-19.26-31.49-22.97-35.56-13.34-14.82-17.41-10.74-9.26,9.26-12.96,8.89-6.67-2.59-10.37,1.48-7.04,5.19-11.11,4.44-10-2.59-13.34-.37-12.22,8.26-16.3,10.61-3.71-2.47-.37-6.91,7.78-10.37,8.89-12.59a39.97,39.97,0,0,1,5.93-8.52c2.96-3.33,5.93-6.67-1.11-8.15s-18.89-12.97-20.74-15.56-13.71-3.71-17.04,3.33-6.66,5.56-10.74,1.11-4.08-4.08-5.19,1.85-3.33,6.66-7.04,2.59-.74-6.3-2.97-12.97-8.89-24.08-15.93-28.52-8.52-8.52-5.56-8.52-13.25-18.53-14.51-20.1-5.95-2.82-7.83-7.2c-1.04-2.43-4.59-5.83-8.29-9.49a52.35,52.35,0,0,1-10.5-1.36c-4.45-1.3-10.75,1.11-10.75,1.11-7.78,2.59-2.22,3.33,0,5.93s7.41,1.48,2.22,2.59-7.41,4.82-10.74,1.48-8.15-7.04-20-9.26-17.04-3.33-28.52-.74-11.85,5.56-15.93,9.26-7.04,5.92-10.75,1.85-3.7-14.08-9.26-19.26-21.49-14.82-27.04-16.3-3.33,4.44-6.3,2.96-2.97-3.71-11.12-5.56-9.63-2.96-11.85-.74-7.78-4.82-7.78-8.89-34.08-42.6-44.82-47.05-5.19-1.11-9.26-1.11-6.67-10-6.67-12.96-4.82-8.15-8.52-14.08-7.04-10.37-12.22-11.48-7.41-5.19-11.11-9.26a18.6,18.6,0,0,0-8.89-5.19s-7.78-7.78-12.97-4.82-3.33,2.22-6.3-.74-11.11-12.96-14.45-20.37-8.89-19.26-12.22-22.97c-1.61-1.79-7.12-9.6-14.12-14.21a46.738,46.738,0,0,0-17.36-6.67c-1.67,0-1.39-1.53-7.92-3.06a12.718,12.718,0,0,1-6.18-3.96c-4.2.8-8.49,1.22-8.49,1.22-3.33-.37-13.71-3.71-13.71-1.85s.74,5.56-1.11,6.3-3.33,2.96-5.93,4.81-1.48,2.59-5.93-1.85-5.18-3.33-7.78-3.33-4.07-3.33-2.22-7.78,2.22-4.82,7.04-4.82,8.89-4.82,5.93-8.89-5.92-11.85-9.63-16.3-7.04-9.26-11.48-11.48-8.15-7.78-9.63-12.22-24.45-16.3-32.23-15.93-7.04-2.22-2.96-4.82,3.33,0,4.08-6.67,4.08-8.15-4.45-14.82-14.45-9.63-21.48-5.19-2.59,6.3-8.15,6.3-12.22-7.78-10.74-10.37,5.19-6.67,7.41-10-1.11-27.04-1.11-30.38-1.11-12.22-3.7-17.41-5.56-8.15-8.52-17.04-9.26-14.08-12.59-17.78-7.04-1.48-10.37-11.86-2.59-19.63-2.96-23.34-1.85-35.93-3.7-38.53-11.48-32.23-20.75-32.23-14.45-16.67-24.08-12.22-11.65-8.61-13.56-9.91a12.045,12.045,0,0,1-2.4-2.39,7.643,7.643,0,0,0-3.49,4.9c0,1.02-1.67,10-5,7.04s-19.26-16.3-22.97-18.89-2.96.37-4.45.37-3.71-1.48-8.52-7.04-9.26-5.93-15.56-10-20-14.08-25.56-17.04-11.48.37-11.11,3.33-7.04,2.22-8.89-1.48-6.67-7.78-16.3-11.11-21.49-6.3-30.01-7.04-11.11-4.82-19.26,0-7.78,9.63-17.04,10-10,4.82-13.34,8.52-5.19,3.7-8.15,10-2.59,10.37-7.04,14.82-13.71,11.85-17.41,12.59-7.41,1.11-10.37,11.11-4.45,24.08-7.78,28.15-14.08,10.74-20.75,12.97-23.34,11.48-30.75,12.22-10.74,3.33-15.56,4.82-5.93,2.59-8.15.74-5.8-15.75-6.13-21.37" fill="none" stroke="#002d7e" stroke-width="1"/>
    </g>
  </g>
</svg>
