<?xml version="1.0" encoding="utf-8"?>
<!-- Generator: Adobe Illustrator 27.3.0, SVG Export Plug-In . SVG Version: 6.00 Build 0)  -->
<svg version="1.1" id="Livello_1" xmlns="http://www.w3.org/2000/svg" xmlns:xlink="http://www.w3.org/1999/xlink" x="0px" y="0px"
	 viewBox="0 0 1132.65 214.47" style="enable-background:new 0 0 1132.65 214.47;" xml:space="preserve">
<style type="text/css">
	.st0{fill:#213A8F;}
</style>
<g>
	<g>
		<g>
			<path class="st0" d="M756.56,107.91c0-12.15,2.69-22.96,5.4-35.13c4.06-10.79,9.46-21.61,17.56-31.06
				c6.75-9.45,14.86-17.57,25.68-22.98c10.8-6.74,21.62-9.45,35.12-9.45h262.11c5.41,0,10.81,2.71,14.86,6.76
				c4.05,4.05,6.75,9.46,6.75,14.87c0,5.4-2.7,10.81-6.75,14.86c-4.05,4.05-9.46,6.75-14.86,6.75H849.78
				c-10.8,0-18.91,1.36-25.66,5.4c-6.76,4.07-12.16,8.12-16.22,13.52c-2.69,5.39-5.41,12.15-6.75,17.56
				c-1.35,6.76-2.7,13.5-2.7,18.91c0,5.41,1.36,10.81,2.7,17.56c1.35,6.76,4.06,12.17,6.75,17.58c4.06,5.4,9.46,9.45,16.22,13.5
				c6.75,4.05,14.86,5.41,25.66,5.41h252.66c5.41,0,10.81,2.69,14.86,6.76c4.05,4.05,6.75,9.45,6.75,14.86
				c0,6.75-2.7,12.15-6.75,16.2c-4.05,4.05-9.46,5.4-14.86,5.4H834.91c-12.16,0-22.96-2.69-32.43-8.1
				c-9.46-6.76-17.56-14.87-24.32-24.32c-6.75-9.46-12.15-18.92-16.21-31.08C759.25,129.54,756.56,118.73,756.56,107.91z"/>
			<path class="st0" d="M425.82,52.51v109.45H658.2c9.46,0,17.57-1.36,24.32-5.41c6.76-4.05,12.17-8.1,16.22-13.5
				c2.7-5.41,5.41-10.82,6.75-17.58c1.35-6.74,2.7-12.15,2.7-17.56c0-5.41-1.36-12.15-2.7-18.91c-1.35-5.41-4.05-12.17-6.75-17.56
				c-4.05-5.4-9.46-9.45-16.22-13.52c-6.75-4.05-14.86-5.4-24.32-5.4H425.82z M750.08,107.91c0,10.81-1.35,21.62-5.41,33.78
				c-4.05,10.81-9.46,21.62-16.21,31.08c-6.76,9.45-14.86,16.22-24.32,22.96c-9.46,5.41-20.27,9.46-32.43,9.46H404.19
				c-5.41,0-10.8-1.36-14.86-5.4c-4.05-4.05-6.75-9.46-6.75-16.2V30.91c0-5.41,2.7-10.82,6.75-14.87c4.06-4.05,9.46-6.76,14.86-6.76
				h263.46c12.17,0,24.32,2.71,33.78,9.45c10.8,5.41,18.91,13.53,27.02,22.98c6.75,9.46,12.16,20.27,16.21,31.06
				C747.37,84.95,750.08,95.76,750.08,107.91z"/>
			<path class="st0" d="M68.02,129.54c-8.1,0-16.2-2.71-22.94-5.4c-8.1-2.71-13.52-6.76-18.92-12.17
				c-5.42-5.41-9.45-12.15-13.52-18.91C9.92,84.95,8.6,78.18,8.6,68.73c0-8.1,1.32-16.22,4.03-22.96c4.07-6.76,8.1-13.5,13.52-18.91
				c5.39-5.41,10.81-9.46,18.92-13.52c6.74-2.69,14.85-4.05,22.94-4.05h272.95c6.75,0,12.13,2.71,16.2,6.76
				c4.03,4.05,5.39,9.46,5.39,14.87c0,5.4-1.36,10.81-5.39,14.86c-4.07,4.05-9.45,6.75-16.2,6.75H66.7c-4.07,0-8.14,1.36-10.81,4.07
				c-4.07,4.05-5.42,8.1-5.42,12.15c0,5.4,1.36,9.45,5.42,12.17c2.68,2.69,6.75,5.39,10.81,5.39h249.94c8.1,0,16.2,1.36,22.98,4.07
				c8.1,2.69,13.49,8.1,18.91,13.5c5.39,5.41,10.81,10.82,13.49,18.92c2.71,6.76,4.07,14.86,4.07,22.96
				c0,9.45-1.36,16.22-4.07,24.32c-2.68,6.76-8.1,13.52-13.49,18.93c-5.42,5.39-10.81,9.46-18.91,12.15
				c-6.78,2.69-14.88,4.05-22.98,4.05H43.71c-6.74,0-10.81-1.36-16.2-5.4c-4.07-4.05-5.42-9.46-5.42-16.2
				c0-5.4,1.36-10.81,5.42-14.86c5.39-4.07,9.46-6.76,16.2-6.76h274.27c4.03,0,8.1-1.36,12.17-4.05c2.68-4.05,4.03-6.76,4.03-12.16
				c0-4.05-1.36-8.1-4.03-12.15c-4.07-2.72-8.14-4.05-12.17-4.05H68.02z"/>
		</g>
	</g>
</g>
</svg>
