<svg xmlns="http://www.w3.org/2000/svg" xmlns:xlink="http://www.w3.org/1999/xlink" width="1080.209" height="1098.811" viewBox="0 0 1080.209 1098.811">
  <defs>
    <clipPath id="clip-path">
      <rect id="Rettangolo_4" data-name="Rettangolo 4" width="1080.209" height="1098.811" fill="rgba(0,0,0,0)"/>
    </clipPath>
  </defs>
  <g id="Raggruppa_10" data-name="Raggruppa 10" transform="translate(0 0)" opacity="0.2">
    <g id="Raggruppa_9" data-name="Raggruppa 9" transform="translate(0 0)" clip-path="url(#clip-path)">
      <path id="Tracciato_2" data-name="Tracciato 2" d="M1007.891,407.578c-60.2-80.965-226-216.056-308.738-277.7C396.5-95.4,237.386,10.785,301.357,159.3c8.214,19.121,19.1,37.119,31.478,54.15C172.075,267.934,17.549,369.735,1.907,480.33-8.759,556.27,26.766,629.988,72.315,691.289c60.177,80.953,225.973,216.056,308.714,277.671,319.851,238.088,482.881,107.008,381.647-60.649-18.807,6.523-37.71,12.429-56.578,17.672,17.828,26.5,42.687,74.588,22.769,99.337-27.468,34.22-143.015,25.112-313.823-102.031-144.887-106.814-222.869-213.182-125.6-344.25l-2.476-2.609c-.966-1-22.02-23.252-36.37-40.175-52.193,65.927-78.948,139.029-51.565,220.4C53.267,618.694,16.716,496.588,109.108,400.15c21.923-22.89,51.082-44.318,87.766-64.188-16.705,57.677,8.721,102.357,54.138,158.935q8.045,10.056,16.971,20.667c13.71,16.669,38.278,42.566,38.278,42.566q9.186,9.585,18.614,19C433.561,685.914,565.982,781.555,645.728,857.242q-3.606.707-7.187,1.365c-12.393,2.21-25.4,4.216-39.208,5.895l.109.217c-58.221,7.489-109.665,7.078-128.629-.06,8.673-15.775,28.881-33.737,56.2-54.343V810.3c7.489-5.629,11.608-8.588,13.045-9.639-11.209-9.325-45.115-37.529-45.248-37.638-.882.652-1.751,1.317-2.6,1.969-68.234,52.35-91.063,90.387-75.808,123.652,14.833,32.311,60.31,43.665,147.4,36.684,20.063-1.607,41.008-4.433,62.448-8.31l.024.048c2.5-.459,5.1-1.015,7.622-1.5,4.01-.773,8.021-1.534,12.067-2.38,3.5-.725,7.042-1.522,10.569-2.307,3.853-.858,7.706-1.727,11.572-2.645q5.4-1.286,10.835-2.669,5.852-1.468,11.717-3.032c3.636-.978,7.271-1.957,10.919-2.984,4-1.123,7.984-2.295,11.97-3.479,3.612-1.063,7.223-2.114,10.847-3.237,4.155-1.292,8.3-2.645,12.441-4,3.5-1.148,6.994-2.235,10.509-3.43q10.69-3.624,21.331-7.5c3.648-1.353,7.284-2.778,10.931-4.167,3.938-1.5,7.887-2.983,11.8-4.542,3.648-1.449,7.284-2.947,10.919-4.445,4.034-1.667,8.057-3.334,12.067-5.049,1.619-.7,3.261-1.341,4.88-2.053l-.048-.06c132.4-57.677,245.795-145.2,259.082-239.079,10.641-75.928-24.871-149.646-70.42-210.935M780.927,810.315c-2.464,1.522-5.013,3-7.61,4.457-.954.531-1.969,1.063-2.959,1.606q-2.609,1.413-5.291,2.79c-1.1.568-2.211,1.123-3.346,1.691-2.1,1.039-4.252,2.053-6.426,3.056-.725.338-1.437.676-2.174,1.027A387.5,387.5,0,0,1,710.205,841.1c-28.072-29.811-61.808-59.573-98.963-90.568,40.815-28.567,85.809-60.842,129.16-97.936,4.409-3.745,8.359-7.175,12.031-10.448l-1.268-1.631a492.08,492.08,0,0,0-35.645-40.114l-.918-.906c-2.44,2.162-4.916,4.3-7.4,6.438-47.035,40.489-101.294,79.3-141.42,107.128-57.689-47.12-120.608-98.093-181.7-157.353q-9.856-9.548-19.628-19.435-9.114-9.114-18.094-18.565a6.028,6.028,0,0,1-.459-.5s-18.674-18.638-37.855-42.578c-6.015-6.994-11.668-13.939-16.9-20.727-52.966-68.947-63.064-127.505,19.061-171.666,18.408-9.893,38.761-18.046,59.863-24.762,8.25-2.682,16.572-4.916,24.907-7.127,4.24-1.111,8.479-2.2,12.731-3.2,5.967-1.425,11.994-2.718,18.058-3.938,15.787-3.213,31.478-5.834,46.613-7.8,12.635-1.643,25.632-3.068,38.375-4.252,64.139-6.052,89.747-.338,98.649,3.008-13.2,24.061-55.515,54.2-78.8,70.9h-.024c-3.8,2.742-8.153,5.834-12.755,9.059-6-5-12.031-10.026-17.937-14.978-2.476-2.09-4.94-4.143-7.4-6.233-11.475-9.663-22.793-19.242-33.785-28.712A529.116,529.116,0,0,0,390.729,278.9c24.339,24.339,52.145,48.014,83.623,73.9,30.113,25.016,62.219,50.9,95.593,78.549,43.206,36.285,91.5,78.731,145.467,131.576q9.331,9.114,18.9,18.686a511.185,511.185,0,0,1,37.855,42.6c5.979,6.957,11.644,13.891,16.9,20.74,48.582,63.221,63.741,121.055-8.141,165.361m102.405-47.434c17.394-60.032-11.886-106.222-54.174-158.862-5.448-6.8-11.113-13.685-16.923-20.727,0,0-22.032-25.982-38.29-42.578q-9.1-9.476-18.638-18.988c-39.909-39.788-85.145-79.588-131.322-118.772l.06-.036c-2.9-2.464-5.822-4.892-8.733-7.344q-9.132-7.7-18.275-15.389-10.2-8.516-20.377-17.043c-4.481-3.72-8.926-7.429-13.383-11.137,59.271-42.023,122.191-94.566,100.5-141.795-14.821-32.311-60.274-43.653-147.387-36.7-39.257,3.116-81.847,10.847-125.15,22.334-44.5-55.285-56.662-101.487-39.9-122.3,31.7-39.5,168.308-17.164,350.749,130.513,121.019,98.033,176.981,196.851,88.647,315.8l2.211,2.247c13.311,13.589,29.883,32.674,36.575,40.477,52.217-66.217,79.153-138.654,51.649-220.393,168.115,159.152,204.835,310.937,2.162,420.686" transform="translate(0.001 -0.002)" fill="#fff"/>
      <path id="Tracciato_3" data-name="Tracciato 3" d="M27.135,122.7l1.039,1.3c17.937,22.394,35.693,40.2,35.875,40.38l.737.737c35.657-31.2,90.737-72.534,126.37-97.538C175.573,54.84,160.4,42.423,145.762,30.151,138.974,35.369,82.638,73.72,27.135,122.7" transform="translate(300.628 334.038)" fill="#fff"/>
    </g>
  </g>
</svg>
